<svg width="42" height="42" viewBox="0 0 42 42" fill="none" xmlns="http://www.w3.org/2000/svg">
<g clip-path="url(#clip0_1_82)">
<path fill-rule="evenodd" clip-rule="evenodd" d="M12.39 17.01L9.45 19.95L18.9 29.4L39.9 8.4L36.96 5.46L18.9 23.52L12.39 17.01ZM37.8 21C37.8 30.24 30.24 37.8 21 37.8C11.76 37.8 4.2 30.24 4.2 21C4.2 11.76 11.76 4.2 21 4.2C22.68 4.2 24.15 4.41 25.62 4.83L28.98 1.47C26.46 0.63 23.73 0 21 0C9.45 0 0 9.45 0 21C0 32.55 9.45 42 21 42C32.55 42 42 32.55 42 21H37.8Z" fill="#FF5757"/>
</g>
<defs>
<clipPath id="clip0_1_82">
<rect width="42" height="42" fill="white"/>
</clipPath>
</defs>
</svg>
