<?xml version="1.0" encoding="UTF-8"?>
<svg id="Lag_2" data-name="Lag 2" xmlns="http://www.w3.org/2000/svg" viewBox="0 0 303.27 255">
  <defs>
    <style>
      .cls-1 {
        fill: #fefafb;
      }
    </style>
  </defs>
  <g id="Lag_1-2" data-name="Lag 1">
    <g>
      <path class="cls-1" d="m58.88,119.12c-11.64,0-21.91-2.4-30.81-7.19-8.79-4.91-15.69-11.81-20.71-20.71C2.45,82.21,0,71.6,0,59.39s2.45-22.25,7.36-31.15c4.91-8.9,11.98-15.8,21.22-20.71C37.94,2.51,49.24,0,62.47,0c6.05,0,11.64.68,16.77,2.05,5.25,1.37,10.21,3.37,14.89,5.99l.68,23.96h-1.71l-9.58-17.8c-1.48-2.85-2.85-4.91-4.11-6.16-1.26-1.26-2.85-2.23-4.79-2.91-1.83-.57-3.54-.97-5.13-1.2-1.48-.34-3.48-.51-5.99-.51-7.07,0-13.35,1.88-18.83,5.65-5.36,3.77-9.53,9.76-12.49,17.97-2.97,8.22-4.45,19-4.45,32.35s1.37,24.02,4.11,32.35c2.85,8.33,6.85,14.43,11.98,18.31,5.13,3.76,11.07,5.65,17.8,5.65,1.03,0,2-.06,2.91-.17,1.03-.23,2-.46,2.91-.68,2.17-.34,3.59-1.26,4.28-2.74.68-1.48,1.03-3.25,1.03-5.31v-33.89c0-4.45-2.28-7.19-6.85-8.22l-7.87-2.05v-1.71h48.27v1.71l-2.4.68c-4.34,1.37-6.5,4.22-6.5,8.56v37.14c-5.93,3.31-11.98,5.82-18.14,7.53-6.05,1.71-12.84,2.57-20.37,2.57Z"/>
      <path class="cls-1" d="m152.03,118.61c1.31,0,2.59-.04,3.84-.14l-3.84.14Z"/>
      <path class="cls-1" d="m245.55,250.21c-2.28-.69-3.88-1.71-4.79-3.08-.91-1.37-1.37-3.2-1.37-5.48v-48.27c0-8.78-2.23-15.29-6.68-19.51-4.33-4.22-10.21-6.33-17.63-6.33-5.59,0-10.72,1.2-15.4,3.59-4.56,2.29-8.84,5.08-12.84,8.39v-21.39l.44-59.54-1.71-1.54c-3.08,3.53-6.39,6.21-9.93,8.04-3.53,1.83-8.15,2.74-13.86,2.74-8.44,0-14.83-2.68-19.17-8.05-4.22-5.47-6.39-14.37-6.5-26.7h51c.34-1.02.57-2.16.69-3.42.11-1.37.17-2.68.17-3.94,0-6.61-1.43-12.49-4.28-17.63-2.74-5.24-6.73-9.35-11.98-12.32-5.25-3.08-11.58-4.62-19-4.62s-13.86,1.71-20.37,5.13c-6.39,3.43-11.64,8.45-15.74,15.07-4.11,6.5-6.16,14.43-6.16,23.79s1.76,16.77,5.3,23.27c3.54,6.51,8.44,11.53,14.72,15.07,6.28,3.42,13.46,5.13,21.57,5.13l3.84-.14h.23c5.34.15,6.28,6.93,6.28,6.93,0,0,.67,22.29.67,24.68v91.4c0,4.34-2.05,7.19-6.16,8.56l-2.05.68v1.71h40.05v-1.71l-1.37-.34c-4.11-1.26-6.16-4.11-6.16-8.56v-59.56c3.08-2.4,6.1-4.05,9.07-4.96,2.96-1.03,5.7-1.54,8.21-1.54,3.88,0,6.56.85,8.05,2.56,1.6,1.71,2.39,4.85,2.39,9.42v53.74c0,4.45-2.05,7.36-6.16,8.73l-2.05.51v1.71h40.05v-1.71l-1.37-.51ZM138.16,48.27c1.37-5.14,3.2-8.68,5.48-10.62,2.39-2.05,5.25-3.08,8.56-3.08,5.82,0,9.75,2.74,11.81,8.22,2.05,5.48,2.51,14.43,1.37,26.87h-29.27c.11-9.24.8-16.37,2.05-21.39Z"/>
      <path class="cls-1" d="m223.54,118.61c-5.59,0-10.61-.68-15.06-2.05-4.45-1.25-8.56-2.85-12.32-4.79l.17-20.37h1.71l5.82,10.27c2.51,4.56,5.25,7.99,8.22,10.27,3.08,2.17,6.96,3.25,11.64,3.25,5.48,0,9.87-1.2,13.18-3.6,3.42-2.51,5.13-5.82,5.13-9.93,0-3.77-1.2-6.85-3.59-9.24-2.4-2.4-6.85-4.56-13.35-6.5l-7.19-2.23c-6.96-2.05-12.44-5.25-16.43-9.58-3.99-4.34-5.99-9.64-5.99-15.92,0-7.53,2.97-13.92,8.9-19.17,5.93-5.25,14.43-7.87,25.5-7.87,4.45,0,8.61.51,12.49,1.54,3.99.91,7.82,2.34,11.47,4.28l-1.03,18.48h-1.71l-5.99-10.61c-2.17-3.77-4.34-6.39-6.5-7.87-2.05-1.6-5.19-2.4-9.41-2.4-3.88,0-7.53,1.08-10.95,3.25-3.42,2.17-5.14,5.25-5.14,9.24s1.43,6.96,4.28,9.24c2.97,2.28,7.3,4.39,13.01,6.33l7.7,2.23c8.22,2.51,14.09,5.99,17.63,10.44,3.54,4.34,5.31,9.58,5.31,15.75,0,8.33-3.31,15-9.93,20.03-6.5,5.02-15.69,7.53-27.56,7.53Z"/>
      <path class="cls-1" d="m57.98,158.64c-3.88,0-7.19-1.2-9.93-3.6-2.62-2.51-3.94-5.65-3.94-9.41s1.31-7.02,3.94-9.41c2.74-2.4,6.05-3.59,9.93-3.59s7.13,1.2,9.76,3.59c2.62,2.4,3.94,5.53,3.94,9.41s-1.31,6.9-3.94,9.41c-2.62,2.4-5.88,3.6-9.76,3.6Zm-20.2,93.79v-1.71l2.4-.68c2.28-.68,3.82-1.71,4.62-3.08.91-1.37,1.37-3.19,1.37-5.48v-53.57c0-2.4-.46-4.16-1.37-5.31-.8-1.26-2.34-2.11-4.62-2.57l-2.4-.51v-1.71l31.32-10.1,1.71,1.71-.51,24.3v47.92c0,2.28.4,4.11,1.2,5.48.91,1.37,2.45,2.4,4.62,3.08l1.71.51v1.71h-40.05Z"/>
      <path class="cls-1" d="m121.87,255c-7.76,0-14.83-1.65-21.22-4.96-6.28-3.42-11.3-8.33-15.06-14.72-3.65-6.5-5.48-14.43-5.48-23.79s2-17.12,5.99-23.62c4.11-6.62,9.53-11.64,16.26-15.06,6.85-3.54,14.32-5.31,22.42-5.31,6.62,0,12.21,1.08,16.77,3.25,4.57,2.17,8.04,5.02,10.44,8.56,2.4,3.42,3.59,7.02,3.59,10.78,0,3.19-.97,5.71-2.91,7.53-1.94,1.71-4.45,2.57-7.53,2.57-3.31,0-5.99-1.2-8.04-3.59-2.05-2.4-3.25-5.53-3.59-9.41-.11-2.51-.06-4.62.17-6.33.23-1.83.23-3.65,0-5.48-.46-1.94-1.2-3.19-2.22-3.77-.91-.68-2.23-1.03-3.94-1.03-6.96,0-12.38,3.02-16.26,9.07-3.76,6.05-5.65,15.69-5.65,28.93,0,11.52,2.11,20.37,6.33,26.53,4.34,6.05,10.95,9.07,19.85,9.07,5.36,0,9.7-.97,13.01-2.91,3.31-1.94,6.5-4.85,9.59-8.73l1.71,1.37c-2.85,6.73-7.25,11.92-13.18,15.57-5.93,3.65-12.95,5.48-21.05,5.48Z"/>
      <path class="cls-1" d="m279.3,255c-7.3,0-13.01-1.83-17.11-5.48-3.99-3.65-5.99-9.47-5.99-17.46v-58.54h-11.81v-1.71l4.11-.68c3.54-.8,6.56-1.94,9.07-3.42,2.62-1.48,5.19-3.48,7.7-5.99l14.03-15.57h1.71l-.51,23.96h19.17v3.42h-19.34v61.62c0,3.99.86,7.02,2.57,9.07,1.83,2.05,4.11,3.08,6.85,3.08,2.4,0,4.51-.57,6.33-1.71,1.83-1.26,3.65-2.91,5.48-4.96l1.71,1.71c-2.28,3.88-5.42,6.96-9.41,9.24-3.99,2.28-8.84,3.42-14.55,3.42Z"/>
    </g>
  </g>
</svg>