<svg width="63" height="95" viewBox="0 0 63 95" fill="none" xmlns="http://www.w3.org/2000/svg">
<g clip-path="url(#clip0_50_35)">
<path d="M34.8992 71.3338C28 71.3338 21.9128 69.8966 16.6376 67.0282C11.4276 64.0879 7.33785 59.9559 4.3624 54.6262C1.45216 49.2306 0 42.877 0 35.5651C0 28.2533 1.45216 22.2409 4.3624 16.9112C7.27265 11.5816 11.4632 7.44957 16.9399 4.50927C22.4877 1.50309 29.1854 0 37.0271 0C40.613 0 43.9263 0.407211 46.967 1.22762C50.0787 2.04803 53.0186 3.24571 55.7925 4.81467L56.1956 19.1629H55.182L49.5038 8.50353C48.6266 6.79684 47.8146 5.56322 47.0677 4.81467C46.3209 4.06014 45.3785 3.47926 44.2286 3.07205C43.1439 2.73071 42.1304 2.49117 41.188 2.35344C40.3107 2.14984 39.1253 2.04803 37.6376 2.04803C33.4471 2.04803 29.7248 3.17385 26.4767 5.43148C23.2997 7.68911 20.8281 11.2762 19.0737 16.1926C17.3133 21.1151 16.4361 27.5706 16.4361 35.5651C16.4361 43.5596 17.2481 49.9493 18.8721 54.9376C20.5614 59.9259 22.9323 63.5789 25.9729 65.9024C29.0135 68.154 32.5343 69.2858 36.5233 69.2858C37.1338 69.2858 37.7087 69.2499 38.2481 69.184C38.8586 69.0463 39.4335 68.9085 39.9729 68.7768C41.2591 68.5732 42.1008 68.0222 42.5097 67.136C42.9128 66.2497 43.1202 65.1897 43.1202 63.9561V43.6614C43.1202 40.9966 41.7688 39.3558 39.0601 38.739L34.3954 37.5113V36.4873H63.0059V37.5113L61.5834 37.9186C59.011 38.739 57.7307 40.4457 57.7307 43.0446V65.2855C54.2159 67.2677 50.63 68.7708 46.9788 69.7948C43.3929 70.8188 39.3683 71.3338 34.9052 71.3338H34.8992Z" fill="#FF5757"/>
<path d="M34.366 95.0001C32.0663 95.0001 30.1044 94.2815 28.4803 92.8443C26.9274 91.3412 26.145 89.4609 26.145 87.2092C26.145 84.9576 26.9215 83.0054 28.4803 81.5742C30.1044 80.1369 32.0663 79.4243 34.366 79.4243C36.6658 79.4243 38.5921 80.1429 40.1509 81.5742C41.7039 83.0114 42.4863 84.8857 42.4863 87.2092C42.4863 89.5327 41.7098 91.3412 40.1509 92.8443C38.598 94.2815 36.6658 95.0001 34.366 95.0001Z" fill="#FF5757"/>
</g>
<defs>
<clipPath id="clip0_50_35">
<rect width="63" height="95" fill="white"/>
</clipPath>
</defs>
</svg>
