<svg width="114" height="173" viewBox="0 0 114 173" fill="none" xmlns="http://www.w3.org/2000/svg">
<g clip-path="url(#clip0_76_289)">
<path d="M63.151 129.903C50.6667 129.903 39.6517 127.285 30.1061 122.062C20.6785 116.707 13.278 109.183 7.89388 99.4772C2.62772 89.6516 0 78.0812 0 64.7659C0 51.4507 2.62772 40.5019 7.89388 30.7963C13.16 21.0906 20.7429 13.5661 30.6531 8.21161C40.6921 2.7372 52.8117 0 67.0014 0C73.4903 0 79.4857 0.741553 84.9879 2.23556C90.6187 3.72958 95.9385 5.91062 100.958 8.76778L101.687 34.8966H99.8532L89.5783 15.4854C87.991 12.3774 86.5216 10.1309 85.1702 8.76778C83.8188 7.39372 82.1135 6.33592 80.0327 5.59436C78.07 4.97277 76.236 4.53656 74.5306 4.28574C72.9433 3.91496 70.7982 3.72958 68.1061 3.72958C60.5233 3.72958 53.7877 5.77975 47.9102 9.89101C42.1614 14.0023 37.689 20.5345 34.5143 29.4876C31.3288 38.4517 29.7415 50.2075 29.7415 64.7659C29.7415 79.3244 31.2108 90.9602 34.1496 100.044C37.2063 109.128 41.4965 115.78 46.9986 120.012C52.5007 124.112 58.8716 126.173 66.0898 126.173C67.1945 126.173 68.2348 126.108 69.2108 125.988C70.3156 125.737 71.3559 125.486 72.3319 125.246C74.6593 124.875 76.1823 123.872 76.9224 122.258C77.6517 120.644 78.0271 118.714 78.0271 116.467V79.5098C78.0271 74.657 75.5817 71.6689 70.6802 70.5457L62.2393 68.3101V66.4453H114.011V68.3101L111.437 69.0517C106.782 70.5457 104.465 73.6537 104.465 78.3865V118.888C98.105 122.498 91.6161 125.235 85.0093 127.1C78.5205 128.965 71.2379 129.903 63.1617 129.903H63.151Z" fill="#FE6060"/>
<path d="M62.1857 173C58.0242 173 54.4741 171.692 51.5354 169.074C48.7253 166.337 47.3096 162.913 47.3096 158.812C47.3096 154.712 48.7146 151.157 51.5354 148.551C54.4741 145.933 58.0242 144.636 62.1857 144.636C66.3471 144.636 69.8329 145.944 72.6536 148.551C75.4637 151.168 76.8794 154.581 76.8794 158.812C76.8794 163.044 75.4744 166.337 72.6536 169.074C69.8436 171.692 66.3471 173 62.1857 173Z" fill="#FE6060"/>
</g>
<defs>
<clipPath id="clip0_76_289">
<rect width="114" height="173" fill="white"/>
</clipPath>
</defs>
</svg>
