<svg width="136" height="108" viewBox="0 0 136 108" fill="none" xmlns="http://www.w3.org/2000/svg">
<path d="M27.204 55.0732C21.8265 55.0732 17.0816 53.9654 12.9694 51.7498C8.90984 49.4815 5.72023 46.2899 3.4005 42.1753C1.1335 38.0079 0 33.1019 0 27.4575C0 21.9712 1.1335 17.1708 3.4005 13.0561C5.6675 8.94148 8.9362 5.74998 13.2066 3.48164C17.5297 1.16055 22.7491 0 28.8647 0C31.6589 0 34.2423 0.316513 36.6147 0.949539C39.0399 1.58256 41.3332 2.50572 43.4948 3.71902L43.8111 14.797H43.0203L38.5918 6.56763C37.9064 5.24883 37.2737 4.2993 36.6938 3.71902C36.1139 3.13875 35.3758 2.69036 34.4795 2.37385C33.636 2.11008 32.8452 1.92545 32.1071 1.81995C31.4217 1.66169 30.4991 1.58256 29.3392 1.58256C26.0705 1.58256 23.1709 2.45297 20.6403 4.19379C18.1624 5.93461 16.2381 8.70409 14.8673 12.5022C13.4966 16.3004 12.8112 21.2855 12.8112 27.4575C12.8112 33.5767 13.4438 38.5618 14.7092 42.4127C16.0272 46.2636 17.8724 49.0858 20.2449 50.8794C22.6173 52.6202 25.3588 53.4906 28.4693 53.4906C28.9438 53.4906 29.3919 53.4642 29.8137 53.4115C30.2882 53.306 30.7363 53.2005 31.1581 53.095C32.1598 52.9367 32.8188 52.5147 33.1351 51.8289C33.4515 51.1431 33.6096 50.3255 33.6096 49.3759V33.7086C33.6096 31.6513 32.5552 30.3852 30.4464 29.9104L26.8086 28.9609V28.1696H49.1096V28.9609L48.0024 29.2774C45.999 29.9104 44.9974 31.2292 44.9974 33.2338V50.4046C42.2559 51.9344 39.4616 53.095 36.6147 53.8863C33.8205 54.6775 30.6836 55.0732 27.204 55.0732Z" fill="#FE6060"/>
<path d="M69.3742 14.4013C72.8011 14.4013 75.7271 15.1135 78.1522 16.5378C80.5774 17.9093 82.4227 19.8084 83.688 22.235C85.006 24.6088 85.665 27.3256 85.665 30.3852C85.665 30.9655 85.6386 31.5721 85.5859 32.2051C85.5332 32.7854 85.4277 33.3129 85.2696 33.7877H61.7033C61.756 39.4849 62.7577 43.5996 64.7084 46.1317C66.7118 48.611 69.6642 49.8507 73.5655 49.8507C76.2016 49.8507 78.3368 49.4287 79.9711 48.5847C81.6055 47.7406 83.1344 46.501 84.5578 44.8656L85.3487 45.5778C83.7143 48.4792 81.5264 50.7475 78.7849 52.3828C76.0961 54.0181 72.8538 54.8358 69.0579 54.8358C65.3147 54.8358 61.9933 54.0445 59.0936 52.4619C56.194 50.8266 53.927 48.5055 52.2926 45.4987C50.6583 42.4918 49.8411 38.9047 49.8411 34.7372C49.8411 30.4116 50.7901 26.7453 52.688 23.7384C54.586 20.6788 57.0111 18.3577 59.9635 16.7752C62.9686 15.1926 66.1055 14.4013 69.3742 14.4013ZM69.137 15.9839C67.6081 15.9839 66.29 16.4587 65.1829 17.4082C64.1285 18.305 63.2849 19.9403 62.6523 22.3141C62.0724 24.6352 61.756 27.9322 61.7033 32.2051H75.2262C75.7534 26.4552 75.5426 22.3141 74.5936 19.782C73.6446 17.2499 71.8257 15.9839 69.137 15.9839Z" fill="#FE6060"/>
<path d="M100.915 54.8358C98.3314 54.8358 96.0117 54.5193 93.9556 53.8863C91.8995 53.306 90.0015 52.5675 88.2617 51.6707L88.3408 42.2544H89.1316L91.8204 47.0021C92.9802 49.1122 94.2455 50.6948 95.6163 51.7498C97.0397 52.7521 98.8323 53.2532 100.994 53.2532C103.524 53.2532 105.554 52.6993 107.083 51.5915C108.665 50.431 109.456 48.9012 109.456 47.0021C109.456 45.2613 108.902 43.837 107.795 42.7292C106.688 41.6214 104.632 40.6191 101.626 39.7223L98.305 38.6937C95.0891 37.7441 92.5585 36.2671 90.7132 34.2625C88.868 32.2579 87.9454 29.8049 87.9454 26.9036C87.9454 23.4219 89.3161 20.4678 92.0576 18.0412C94.7991 15.6146 98.7268 14.4013 103.841 14.4013C105.897 14.4013 107.821 14.6387 109.614 15.1135C111.459 15.5355 113.225 16.1949 114.912 17.0917L114.438 25.6375H113.647L110.879 20.7316C109.877 18.9907 108.876 17.7775 107.874 17.0917C106.925 16.3531 105.475 15.9839 103.524 15.9839C101.732 15.9839 100.045 16.485 98.4632 17.4873C96.8816 18.4896 96.0908 19.9139 96.0908 21.7602C96.0908 23.5538 96.7498 24.9781 98.0678 26.0332C99.4385 27.0882 101.442 28.0641 104.078 28.9609L107.637 29.9896C111.433 31.1501 114.148 32.759 115.782 34.8164C117.416 36.821 118.234 39.2475 118.234 42.0962C118.234 45.9471 116.705 49.0331 113.647 51.3542C110.642 53.6752 106.398 54.8358 100.915 54.8358Z" fill="#FE6060"/>
<path d="M20.6106 63.4509C18.8181 63.4509 17.2892 62.897 16.0239 61.7892C14.8113 60.6286 14.205 59.1779 14.205 57.4371C14.205 55.6436 14.8113 54.1929 16.0239 53.0851C17.2892 51.9773 18.8181 51.4234 20.6106 51.4234C22.4031 51.4234 23.9057 51.9773 25.1182 53.0851C26.3308 54.1929 26.9371 55.6436 26.9371 57.4371C26.9371 59.1779 26.3308 60.6286 25.1182 61.7892C23.9057 62.897 22.4031 63.4509 20.6106 63.4509ZM11.279 106.813V106.022L12.3861 105.705C13.4406 105.389 14.1523 104.914 14.5213 104.281C14.9431 103.648 15.154 102.804 15.154 101.749V76.9818C15.154 75.874 14.9431 75.0563 14.5213 74.5288C14.1523 73.9485 13.4406 73.5529 12.3861 73.3419L11.279 73.1045V72.3132L25.7509 67.6447L26.5417 68.4359L26.3045 79.6721V101.828C26.3045 102.883 26.489 103.727 26.858 104.36C27.2798 104.993 27.9915 105.468 28.9932 105.784L29.7841 106.022V106.813H11.279Z" fill="#FE6060"/>
<path d="M50.525 108C46.94 108 43.6713 107.235 40.7189 105.705C37.8193 104.123 35.4995 101.854 33.7597 98.9003C32.0727 95.8934 31.2291 92.2271 31.2291 87.9015C31.2291 83.6285 32.1518 79.9886 33.997 76.9818C35.8949 73.9222 38.3992 71.6011 41.5097 70.0185C44.673 68.3832 48.1262 67.5655 51.8694 67.5655C54.9272 67.5655 57.5105 68.0667 59.6194 69.069C61.7282 70.0712 63.3362 71.3901 64.4434 73.0254C65.5505 74.6079 66.1041 76.2696 66.1041 78.0104C66.1041 79.4875 65.6559 80.648 64.7597 81.4921C63.8634 82.2834 62.7036 82.679 61.2801 82.679C59.7512 82.679 58.5122 82.1251 57.5633 81.0173C56.6143 79.9095 56.0607 78.4588 55.9026 76.6653C55.8498 75.5047 55.8762 74.5288 55.9816 73.7375C56.0871 72.8935 56.0871 72.0495 55.9816 71.2054C55.7708 70.3086 55.4281 69.7284 54.9536 69.4646C54.5318 69.1481 53.9255 68.9898 53.1347 68.9898C49.9187 68.9898 47.4145 70.3878 45.622 73.1836C43.8822 75.9795 43.0123 80.437 43.0123 86.5563C43.0123 91.8842 43.9876 95.9725 45.9383 98.8211C47.9417 101.617 50.9995 103.015 55.1117 103.015C57.5896 103.015 59.593 102.567 61.1219 101.67C62.6508 100.773 64.127 99.4278 65.5505 97.6342L66.3413 98.2672C65.0233 101.38 62.9935 103.78 60.252 105.468C57.5105 107.156 54.2682 108 50.525 108Z" fill="#FE6060"/>
<path d="M66.156 106.813V106.022L67.1049 105.705C69.0029 105.072 69.9519 103.753 69.9519 101.749V59.4945C69.9519 58.3867 69.7673 57.569 69.3983 57.0415C69.0293 56.514 68.3175 56.1183 67.2631 55.8546L66.0769 55.5381L63.1304 54.0816L79.9952 51.3443L81.2605 52.0564L80.9442 63.2135V73.1045C82.7894 71.5747 84.7665 70.2823 86.8753 69.2272C89.0369 68.1194 91.4093 67.5655 93.9926 67.5655C97.4195 67.5655 100.135 68.5414 102.138 70.4933C104.194 72.4451 105.222 75.452 105.222 79.5139V101.828C105.222 102.883 105.433 103.727 105.855 104.36C106.277 104.993 107.015 105.468 108.069 105.784L108.702 106.022V106.813H90.1967V106.022L91.1457 105.784C93.0437 105.151 93.9926 103.806 93.9926 101.749V76.9026C93.9926 74.7926 93.6236 73.3419 92.8855 72.5506C92.2001 71.7593 90.9612 71.3637 89.1687 71.3637C88.0088 71.3637 86.7435 71.6011 85.3727 72.0758C84.002 72.4978 82.6049 73.2627 81.1814 74.3705V101.907C81.1814 103.964 82.1304 105.283 84.0284 105.864L84.661 106.022V106.813H66.156Z" fill="#FE6060"/>
<path d="M124.059 108C120.685 108 118.049 107.156 116.151 105.468C114.306 103.78 113.383 101.089 113.383 97.3968V70.335H107.926V69.5437L109.824 69.2272C111.459 68.858 112.856 68.3304 114.016 67.6447C115.228 66.9589 116.414 66.0357 117.574 64.8752L124.059 57.6745H124.85L124.613 68.7524H133.47V70.335H124.534V98.8211C124.534 100.667 124.929 102.065 125.72 103.015C126.563 103.964 127.618 104.439 128.883 104.439C129.99 104.439 130.965 104.175 131.809 103.648C132.653 103.068 133.496 102.303 134.34 101.353L135.13 102.145C134.076 103.938 132.626 105.362 130.781 106.417C128.936 107.472 126.695 108 124.059 108Z" fill="#FE6060"/>
</svg>
